# xmcd CD database file
#
# Track frame offsets:
#	150
#	38257
#	76187
#	105562
#	127140
#	155080
#	169732
#	193878
#	215804
#	245331
#
# Disc length: 3592 seconds
#
# Revision: 0
# Processed by: cddbd v1.5.2PL0 Copyright (c) Steve Scherf et al.
# Submitted via: CDex 1.70beta2
#
DISCID=850e060a
DTITLE=Bluiett, Jackson, El'Zabar - The Calling
DYEAR=2001
DGENRE=Jazz
TTITLE0=Open My Eyes
TTITLE1=Sai-Wah
TTITLE2=When the Elephant Walks
TTITLE3=Blues for the People
TTITLE4=Wake Up and Dream
TTITLE5=Ask and You Shall Find
TTITLE6=Black Danube [a.k.a. The Calling]
TTITLE7=We Are
TTITLE8=Odd Pocket
TTITLE9=Blues Grind
EXTD=YEAR: 2001
EXTT0=
EXTT1=
EXTT2=
EXTT3=
EXTT4=
EXTT5=
EXTT6=
EXTT7=
EXTT8=
EXTT9=
PLAYORDER=
